<?xml version="1.0" encoding="utf-8"?>
<!-- Generator: Adobe Illustrator 25.0.0, SVG Export Plug-In . SVG Version: 6.00 Build 0)  -->
<svg version="1.1" id="Layer_1" xmlns="http://www.w3.org/2000/svg" xmlns:xlink="http://www.w3.org/1999/xlink" x="0px" y="0px"
	 viewBox="0 0 448 512" style="enable-background:new 0 0 448 512;" xml:space="preserve">
<style type="text/css">
	.st0{fill:none;stroke:#000000;stroke-width:23;stroke-miterlimit:10;}
	.st1{fill:#FFFFFF;}
</style>
<path class="st0" d="M217.3,70.8C207,60.6,193,54.7,178.4,54.7c-30.4,0-55.1,24.6-55.1,55.1v4.4c0,10.8,3,21.3,8.4,30.5l16.9,28.1
	c1,1.6,1.1,2.8,0.9,3.8c-0.2,1.1-0.7,2.2-1.8,3.2s-2.2,1.6-3.2,1.8c-0.9,0.2-2.2,0.1-3.8-0.9l-28.1-16.9c-9.3-5.6-19.8-8.4-30.5-8.4
	h-4.3c-30.4-0.1-55.1,24.5-55.1,55c0,14.6,5.8,28.6,16.1,38.9l1.1,1.1c3.1,3.1,3.1,8.1,0,11.1l-1.1,1.1
	c-10.2,10.4-16.1,24.4-16.1,39c0,30.4,24.6,55.1,55.1,55.1h4.3c10.8,0,21.3-3,30.5-8.4l28.1-16.9c1.6-1,2.8-1.1,3.8-0.9
	c1.1,0.2,2.2,0.7,3.2,1.8c1,1.1,1.6,2.2,1.8,3.2c0.2,0.9,0.1,2.2-0.9,3.8l-16.9,28.1c-5.6,9.3-8.4,19.8-8.4,30.5v4.4
	c0,30.4,24.6,55.1,55.1,55.1c14.6,0,28.6-5.8,38.9-16.1l1.1-1.1c3.1-3.1,8.1-3.1,11.1,0l1.1,1.1c10.3,10.3,24.3,16.1,38.9,16.1
	c30.4,0,55.1-24.6,55.1-55.1v-4.4c0-10.8-3-21.3-8.4-30.5l-16.9-28.1c-1-1.6-1.1-2.8-0.9-3.8c0.2-1.1,0.7-2.2,1.8-3.2
	c1.1-1,2.2-1.6,3.2-1.8c0.9-0.2,2.2-0.1,3.8,0.9l28.1,16.9c9.3,5.6,19.8,8.4,30.5,8.4h4.4c30.4,0,55.1-24.6,55.1-55.1
	c0-14.6-5.8-28.6-16.1-38.9l-1.1-1.1c-3.1-3.1-3.1-8.1,0-11.1l1.1-1.1c10.3-10.3,16.1-24.3,16.1-38.9c0-30.4-24.6-55.1-55.1-55.1
	h-4.4c-10.8,0-21.3,3-30.5,8.4l-28.1,16.9c-1.6,1-2.8,1.1-3.8,0.9c-1.1-0.2-2.2-0.7-3.2-1.8s-1.6-2.2-1.8-3.2
	c-0.2-0.9-0.1-2.2,0.9-3.8l16.9-28.1c5.6-9.3,8.4-19.8,8.4-30.5v-4.4c-0.1-30.4-24.7-55.1-55.1-55.1c-14.6,0-28.6,5.8-38.9,16.1
	l-1.1,1.1c-3.1,3.1-8.1,3.1-11.1,0L217.3,70.8L217.3,70.8z"/>
<path class="st1" d="M184,165.6"/>
</svg>
