<svg id="Layer_1" data-name="Layer 1" xmlns="http://www.w3.org/2000/svg" viewBox="0 0 435.35 502.02"><defs><style>.cls-1{fill:#1d1d1d;}.cls-2{fill:#484848;}.cls-3{fill:#919191;}</style></defs><path class="cls-1" d="M217.19,395c4.16-2.07,8.56-.58,12.84-.88.25.22.32.43.21.62s-.21.26-.31.26Z" transform="translate(-62.33 107.01)"/><path class="cls-2" d="M229.93,395a5.16,5.16,0,0,1,.1-.88l7.94.05a4.78,4.78,0,0,0-.2.83Z" transform="translate(-62.33 107.01)"/><path class="cls-3" d="M212.29,395c.65-1.49,1.3-1.29,2,0Z" transform="translate(-62.33 107.01)"/><path d="M386.17,232.73c-8.79-.82-17.59,0-26.38,0-3.39,0-4.35-1-4.47-4.37-2-55.92-38.29-103.39-91.67-120.26a43.42,43.42,0,0,1-9.07-3.52c-6-3.53-7.59-9.44-7.6-16,0-9.14-.15-18.28.08-27.41.08-3.48-1.07-4.4-4.44-4.34-11.58.18-23.17.2-34.75,0-3.55-.07-4.84.72-4.71,4.53.29,9,.14,17.95.08,26.92-.06,10.52-3.69,15.52-13.57,18.86-3.09,1-6.22,2-9.28,3-2.88,1-5.69,2.25-9.38,3.73v-17q.09-26.21.19-52.42c0-13.5,5.82-19.26,19.45-19.28,4.73,0,9.48-.21,14.21.06,3.33.19,4.54-.67,4.44-4.25-.25-8.81-.23-17.64,0-26.46,1.29-48.72,34.37-88.77,81.85-99.26,56.73-12.53,114.43,26.91,123.24,84.23,3,19.66,1.08,39.46,1.67,59.19.06,2.1-.95,2.39-2.69,2.39-8.82-.05-17.64-.14-26.46,0-3.05.06-2.93-1.57-2.92-3.68,0-13.39.14-26.79,0-40.19-.37-34.56-21.79-61.93-54.86-70.29-41-10.36-83.26,19.23-87.59,61.32-1.15,11.25-.35,22.53-.69,33.79-.09,2.82,1.21,3.19,3.53,3.14,5.55-.11,11.11-.08,16.66,0,11.66.11,17.83,6.26,17.87,17.84,0,10.78.14,21.57-.07,32.35-.06,3.1.89,4.55,3.8,5.67,38.3,14.71,67,40.41,86.23,76.53,12,22.54,17.85,46.78,18.51,72.29C387.42,231.06,387.64,232.25,386.17,232.73Z" transform="translate(-62.33 107.01)"/><path d="M416.07,109.73c0,8.47-.11,17,.06,25.42.06,2.81-.81,3.63-3.57,3.58q-12.46-.22-24.93,0c-2.68,0-3.66-.67-3.64-3.54q.19-25.43,0-50.85c0-2.63.86-3.32,3.36-3.29,8.47.13,16.95.18,25.42,0,3.07-.07,3.37,1.25,3.34,3.76C416,93.1,416.07,101.42,416.07,109.73Z" transform="translate(-62.33 107.01)"/><path d="M331,57c-8.32,0-16.64-.1-25,0-2.64.05-3.69-.47-3.62-3.4.21-8.32.19-16.64,0-25-.06-2.81.8-3.51,3.54-3.49q25.2.19,50.4,0c2.81,0,4,.43,3.94,3.67-.25,8.14-.24,16.31,0,24.46.09,3.15-1,3.78-3.87,3.72C348,56.84,339.47,57,331,57Z" transform="translate(-62.33 107.01)"/><path d="M469,57c-8.33,0-16.67-.12-25,.06-3,.06-4.33-.5-4.21-4,.28-8.16.17-16.34,0-24.5,0-2.51.63-3.41,3.26-3.4q25.73.15,51.46,0c2.29,0,3.11.54,3.07,3q-.21,13,0,26c.05,2.54-1,2.9-3.14,2.88C486,56.89,477.54,57,469,57Z" transform="translate(-62.33 107.01)"/><path d="M225.06,317.79c0,4.08-.16,8.17.06,12.24.15,2.86-.88,3.53-3.63,3.4-30.61-1.37-55.59-14.07-74.94-37.62-13.77-16.75-20.75-36.29-22.27-57.9-.28-3.91.35-5.54,4.74-5.34,7.65.36,15.34.21,23,.05,3-.06,4.21.67,4.39,4,1.93,35.1,28.81,62.16,64.48,64.9,3.36.26,4.51,1.12,4.24,4.51C224.83,309.94,225.06,313.88,225.06,317.79Z" transform="translate(-62.33 107.01)"/><path d="M383.45,264.32c-3.09-.52-16.75-2.61-26-.92-3.83.69-6.91,2-8.16,4.41h0c-.11.3-.22.63-.33,1a.07.07,0,0,0,0,.05c-.07.23-.15.47-.22.72A120.2,120.2,0,0,1,330,307.62c-29.51,39.7-69.31,58-118.24,53.3-43.42-4.15-76.61-26.31-98.7-64.12-15.2-26-20.33-54.25-15.58-84a127.11,127.11,0,0,1,37.64-72.64l.28-.3c1.12-1.26,5.28-6.49,6-15.41,0-.41.07-.82.08-1.24a.28.28,0,0,0,0-.09c1-13.69-1.8-28.09-1.8-28.09a25.35,25.35,0,0,0-2.39,1.14c-14.93,9.65-28.32,21.14-39,35.28C61.72,179.67,52.23,233,73.54,289.63S137,380.07,196.33,392.34c4,.83,8.34.38,12,2.67h3.92a1.27,1.27,0,0,1,2,0h2.94c4.27-1.09,8.61-.23,12.91-.51,2.62-.17,5.28.38,7.88-.32a129.78,129.78,0,0,0,37.76-7.35c42.33-14.49,73.94-41.6,94.39-81.48a149.91,149.91,0,0,0,14-40.92Z" transform="translate(-62.33 107.01)"/></svg>