<svg id="Layer_1" data-name="Layer 1" xmlns="http://www.w3.org/2000/svg" viewBox="0 0 382.9 383.5"><path d="M377.46-47.44c10.66,1.77,17.7,9.92,17.86,20.72.05,3.37.1,6.74,0,10.11s-2.39,5.87-5.47,5.95-5.61-2.39-5.71-6.06c-.08-3.12,0-6.24,0-9.37-.1-6.44-3.76-10.12-10.22-10.32-.75,0-1.5,0-2.25,0H188.7c-9.55,0-12.59,3-12.59,12.47V144.71c0,1.13.06,2.26,0,3.38a5.58,5.58,0,0,1-11.16,0c-.1-1.12,0-2.25,0-3.37V45.46c-7.91,2.13-15.56,4.16-23.19,6.26q-17.08,4.7-34.16,9.47c-6.94,1.93-8.86,5.19-7,12.17q29.67,108.5,59.35,217c2.44,8.89,4.83,17.79,7.29,26.68,1.65,5.94,5.37,8.13,11.3,6.5q74.64-20.46,149.27-41c.34-.09.79,0,.78-.84h-4.35q-68.46,0-136.92,0c-11.66,0-20-6.57-22.07-17.26a22.92,22.92,0,0,1-.34-4.47q0-42,0-83.95a12.68,12.68,0,0,1,.08-2.62c.68-3.05,2.57-4.87,5.77-4.75,3,.11,4.77,1.93,5.29,4.85a19.93,19.93,0,0,1,.08,3.37v81.71c0,8.32,3.51,11.88,11.78,11.88H372.32c8.28,0,11.79-3.56,11.79-11.88V13.81c0-.88,0-1.75,0-2.63.07-4.34,2.17-6.86,5.69-6.8s5.51,2.58,5.53,7c0,6.24.11,12.49,0,18.73-.07,2.58.45,3.81,3.31,4.56,18.87,5,37.67,10.26,56.48,15.46C468.79,53.91,474,63,470.28,76.72q-15.87,58.22-31.76,116.43c-.2.72-.38,1.45-.61,2.16-1.17,3.59-4,5.3-7.09,4.34s-4.7-3.81-3.72-7.44Q433,170.39,439,148.59q10.28-37.49,20.57-74.95c2-7.35.15-10.6-7.32-12.66-17.74-4.9-35.52-9.66-53.22-14.69-3.3-.94-3.77-.25-3.77,3q.15,104.94.07,209.89c0,13.77-8.62,22.41-22.38,22.52h-1.87c-3.24,0-6.49.11-9.73,0-4.38-.18-8.43-.31-11.34,4.19-1.58,2.45-4.74,3.49-7.68,4.3q-18.7,5.14-37.39,10.36c-.82.22-1.61.55-3,1.05L358,317c7.79,2.15,15.58,4.31,23.38,6.42,6.39,1.74,10-.36,11.74-6.77q13.16-48.12,26.29-96.24c.2-.72.4-1.44.65-2.15,1.18-3.32,3.82-4.81,7-4,3,.8,4.61,3.62,3.69,7.07-3.23,12.16-6.56,24.29-9.88,36.43q-8.58,31.35-17.17,62.7c-2.23,8.13-7.43,13-15.71,14.63-1.7.75-3.62-.32-5.29.64h-.75c-29.59-7-58.73-15.59-88-23.84-9.05-2.56-17.31-3-26.51-.25-26.16,7.75-52.6,14.56-78.9,21.87a118.4,118.4,0,0,1-11.65,2.22h-4.49c-9.9-1.24-14.83-7.61-17.27-16.66-8.34-30.86-16.85-61.66-25.26-92.5Q116.57,178,103.24,129.42C98.81,113.29,94.48,97.13,90,81c-.78-2.75-.6-5.66-1.42-8.41V65.87c1.1-9.75,7.51-14.39,16.19-16.77,18-5,36.11-9.73,54.1-14.87,4.93-1.41,5-1.38,5-6.69,0-17.87,0-35.73,0-53.59A22.15,22.15,0,0,1,173.4-45c3.12-2.28,6.56-2.85,10.25-2.74H373A13.27,13.27,0,0,1,377.46-47.44Z" transform="translate(-88.55 47.75)"/><path d="M315.35,92.89c-2.24-.84-2.54-1.9-2.47-4a32.79,32.79,0,1,0-65.53-.27c.09,2.57-.49,3.55-2.93,4.45-14.79,5.49-23.68,21.07-20.87,36.13,3,16.24,16.36,27.43,32.57,27.46,6.51,0,12.38-2.11,18.37-5.52,0,5.33-.06,10.18,0,15,0,1.82-.92,2-2.33,2-3.87-.05-7.73-.09-11.6,0s-6.56,2.43-6.52,5.7,2.58,5.48,6.65,5.5q19.45.06,38.9,0c4,0,6.57-2.33,6.53-5.62s-2.61-5.5-6.64-5.59c-3.87-.08-7.73,0-11.6,0-1.2,0-2.22,0-2.2-1.7.07-4.94,0-9.89,0-15.31l2.41,1.29c17.28,9.37,38,2.58,46-15.1C342.11,119.8,333.67,99.75,315.35,92.89Zm-2.17,50.57a21.56,21.56,0,0,1-26.95-7.92c-.14-.21-.24-.44-.38-.65-3.62-5.68-7.85-5.72-11.42-.08-4.51,7.12-10.95,10.68-19.36,10.52-10.59-.2-19.89-9-20.62-19.48-.81-11.59,6.67-21.5,17.6-23.32l1.85-.28c5.44-.92,6.9-3.22,5.49-8.64-3.75-14.44,6.3-27.84,20.85-27.79a21.51,21.51,0,0,1,21,25.85c-.12.61-.21,1.23-.36,1.83-1.45,5.66,0,7.92,5.73,8.77,9.45,1.39,15.74,6.55,18.44,15.7A21.41,21.41,0,0,1,313.18,143.46Z" transform="translate(-88.55 47.75)"/><path d="M367.42,200.46c-2.79-1.07-6.37,0-7,3.18-1.42,7.63-6.2,8.73-12.6,7.74a19.75,19.75,0,0,0-3,0c-7.28,0-7.33,0-10.06-6.8-1-2.55-2.58-4.19-4.94-4.45-4.5-.16-7.25,3.63-5.73,7.73,5.55,15.06,11.23,30.06,16.9,45.07a6.26,6.26,0,0,0,6.31,4.36,6.11,6.11,0,0,0,6.08-4.14q8.69-22.65,17.22-45.36A5.4,5.4,0,0,0,367.42,200.46Zm-15,24c-1.64,4.11-3.2,8.25-5.12,13.24-2.06-5.48-3.79-10.11-5.67-15.11,3.41,0,6.37,0,9.32,0C352.42,222.55,353.07,222.86,352.43,224.47Z" transform="translate(-88.55 47.75)"/><path d="M236.12,26.21C230.53,11,224.81-4.1,219.07-19.22a6.13,6.13,0,0,0-6-4.19,6.24,6.24,0,0,0-6.32,4.34c-5.73,15-11.47,30-17.11,45-1.23,3.29.18,6.34,3,7.46s6.64-.06,7.22-3.35c1.34-7.58,6.11-8.49,12.32-7.62a18.93,18.93,0,0,0,2.61,0c7.73,0,7.76,0,10.68,7,1.05,2.53,2.61,4.21,4.53,4.25C234.92,33.73,237.57,30.15,236.12,26.21Zm-28.9-15.16,5.71-14.89,5.56,14.89Z" transform="translate(-88.55 47.75)"/></svg>