<?xml version="1.0" encoding="UTF-8"?>
<svg id="Layer_1" data-name="Layer 1" xmlns="http://www.w3.org/2000/svg" version="1.1" viewBox="0 0 1000 1250">
  <defs>
    <style>
      .cls-1 {
        fill: #000;
        stroke-width: 0px;
      }
    </style>
  </defs>
  <path class="cls-1" d="M218.4,634.7h122.4v-122.4h-122.4v122.4ZM260.2,610.2l56.1-56.1v56.1h-56.1ZM299,536.7l-56.1,56.1v-56.1h56.1ZM218.4,487.8h122.4v-122.4h-122.4v122.4ZM242.9,389.8h73.5v73.5h-73.5v-73.5ZM218.4,340.8h122.4v-122.4h-94.1c-15.7,0-28.3,12.7-28.3,28.3v94.1ZM242.9,242.9h73.5v73.5h-73.5v-73.5ZM365.3,487.8h122.4v-122.4h-122.4v122.4ZM407.1,463.3l56.1-56.1v56.1h-56.1ZM446,389.8l-56.1,56.1v-56.1h56.1ZM365.3,340.8h122.4v-122.4h-122.4v122.4ZM389.8,242.9h73.5v73.5h-73.5v-73.5ZM512.2,487.8h122.4v-122.4h-122.4v122.4ZM554,463.3l56.1-56.1v56.1h-56.1ZM592.9,389.8l-56.1,56.1v-56.1h56.1ZM512.2,340.8h122.4v-122.4h-122.4v122.4ZM536.7,242.9h73.5v73.5h-73.5v-73.5ZM659.2,218.4v122.4h122.4v-94.1c0-15.7-12.7-28.3-28.3-28.3h-94.1ZM739.8,242.9l-56.1,56.1v-56.1h56.1ZM701,316.3l56.1-56.1v56.1h-56.1ZM365.3,512.2h122.4v122.4h-122.4v-122.4ZM512.2,512.2h122.4v122.4h-122.4v-122.4ZM659.2,512.2h122.4v122.4h-122.4v-122.4ZM218.4,659.2h122.4v122.4h-94.1c-15.7,0-28.3-12.7-28.3-28.3v-94.1ZM365.3,659.2h122.4v122.4h-122.4v-122.4ZM512.2,659.2h122.4v122.4h-122.4v-122.4ZM659.2,659.2h122.4v94.1c0,15.7-12.7,28.3-28.3,28.3h-94.1v-122.4ZM659.2,365.3h122.4v122.4h-122.4v-122.4Z"/>
</svg>