<?xml version="1.0" encoding="UTF-8"?>
<svg id="Layer_1" data-name="Layer 1" xmlns="http://www.w3.org/2000/svg" version="1.1" viewBox="0 0 640 512">
  <defs>
    <style>
      .cls-1 {
        fill: #000;
        stroke-width: 0px;
      }
    </style>
  </defs>
  <path class="cls-1" d="M416,0C352.3,0,256,32,256,32v128c48,0,76,16,104,32s56,32,104,32,176-16,176-96S512,0,416,0ZM470,205.9c-41.8,0-82.7-26.1-107-38s-40.2-31.4-82-31.4V41.6s83.8-23.7,139.2-23.7c83.5,0,194.8,35.6,194.8,94.9s-95.9,93.1-145,93.1Z"/>
  <path class="cls-1" d="M128,96c0,35.3,28.7,64,64,64h32V32h-32c-35.3,0-64,28.7-64,64Z"/>
  <path class="cls-1" d="M336,288c-48,0-76,16-104,32s-56,32-104,32v128s96.3,32,160,32c96,0,224-48,224-128s-119.6-96-176-96ZM286.2,488c-55.4,0-139.2-23.7-139.2-23.7v-94.9c41.8,0,57.7-19.6,82-31.4s65.2-38,107-38,145,33.9,145,93.1-111.3,94.9-194.8,94.9Z"/>
  <path class="cls-1" d="M0,416c0,35.3,28.7,64,64,64h32v-128h-32c-35.3,0-64,28.7-64,64Z"/>
</svg>